<mxfile host="app.diagrams.net" modified="2021-07-25T09:18:37.630Z" agent="5.0 (Windows NT 10.0; Win64; x64) AppleWebKit/537.36 (KHTML, like Gecko) Chrome/91.0.4472.164 Safari/537.36" etag="dLMrFb_XUzZfCQOUWDko" version="14.9.2" type="github">
  <diagram id="5QkBd33RTSYPS9vqj1QY" name="Page-1">
    <mxGraphModel dx="1422" dy="738" grid="1" gridSize="10" guides="1" tooltips="1" connect="1" arrows="1" fold="1" page="1" pageScale="1" pageWidth="827" pageHeight="1169" math="0" shadow="0">
      <root>
        <mxCell id="0" />
        <mxCell id="1" parent="0" />
        <mxCell id="961a6PUNnO08rihcnJV5-5" value="" style="edgeStyle=orthogonalEdgeStyle;rounded=0;orthogonalLoop=1;jettySize=auto;html=1;" edge="1" parent="1" source="961a6PUNnO08rihcnJV5-1" target="961a6PUNnO08rihcnJV5-4">
          <mxGeometry relative="1" as="geometry" />
        </mxCell>
        <mxCell id="961a6PUNnO08rihcnJV5-1" value="隨機初始化解&lt;br&gt;並設定為歷史最佳解" style="rounded=0;whiteSpace=wrap;html=1;fillColor=#dae8fc;strokeColor=#6c8ebf;" vertex="1" parent="1">
          <mxGeometry x="265" y="50" width="230" height="60" as="geometry" />
        </mxCell>
        <mxCell id="961a6PUNnO08rihcnJV5-8" value="" style="edgeStyle=orthogonalEdgeStyle;rounded=0;orthogonalLoop=1;jettySize=auto;html=1;" edge="1" parent="1" source="961a6PUNnO08rihcnJV5-4" target="961a6PUNnO08rihcnJV5-7">
          <mxGeometry relative="1" as="geometry" />
        </mxCell>
        <mxCell id="961a6PUNnO08rihcnJV5-10" value="" style="edgeStyle=orthogonalEdgeStyle;rounded=0;orthogonalLoop=1;jettySize=auto;html=1;" edge="1" parent="1" source="961a6PUNnO08rihcnJV5-4" target="961a6PUNnO08rihcnJV5-9">
          <mxGeometry relative="1" as="geometry" />
        </mxCell>
        <mxCell id="961a6PUNnO08rihcnJV5-4" value="滿足停止條件?" style="rhombus;whiteSpace=wrap;html=1;rounded=0;" vertex="1" parent="1">
          <mxGeometry x="340" y="180" width="80" height="80" as="geometry" />
        </mxCell>
        <mxCell id="961a6PUNnO08rihcnJV5-7" value="結束" style="whiteSpace=wrap;html=1;rounded=0;" vertex="1" parent="1">
          <mxGeometry x="480" y="190" width="120" height="60" as="geometry" />
        </mxCell>
        <mxCell id="961a6PUNnO08rihcnJV5-12" value="" style="edgeStyle=orthogonalEdgeStyle;rounded=0;orthogonalLoop=1;jettySize=auto;html=1;" edge="1" parent="1" source="961a6PUNnO08rihcnJV5-9" target="961a6PUNnO08rihcnJV5-11">
          <mxGeometry relative="1" as="geometry" />
        </mxCell>
        <mxCell id="961a6PUNnO08rihcnJV5-9" value="找到鄰近最佳解" style="whiteSpace=wrap;html=1;rounded=0;" vertex="1" parent="1">
          <mxGeometry x="320" y="300" width="120" height="60" as="geometry" />
        </mxCell>
        <mxCell id="961a6PUNnO08rihcnJV5-14" value="" style="edgeStyle=orthogonalEdgeStyle;rounded=0;orthogonalLoop=1;jettySize=auto;html=1;" edge="1" parent="1" source="961a6PUNnO08rihcnJV5-11" target="961a6PUNnO08rihcnJV5-13">
          <mxGeometry relative="1" as="geometry" />
        </mxCell>
        <mxCell id="961a6PUNnO08rihcnJV5-15" style="edgeStyle=orthogonalEdgeStyle;rounded=0;orthogonalLoop=1;jettySize=auto;html=1;" edge="1" parent="1" source="961a6PUNnO08rihcnJV5-11">
          <mxGeometry relative="1" as="geometry">
            <mxPoint x="380" y="150" as="targetPoint" />
            <Array as="points">
              <mxPoint x="180" y="440" />
              <mxPoint x="180" y="150" />
            </Array>
          </mxGeometry>
        </mxCell>
        <mxCell id="961a6PUNnO08rihcnJV5-11" value="是否優於歷史最佳解" style="rhombus;whiteSpace=wrap;html=1;rounded=0;" vertex="1" parent="1">
          <mxGeometry x="340" y="400" width="80" height="80" as="geometry" />
        </mxCell>
        <mxCell id="961a6PUNnO08rihcnJV5-16" style="edgeStyle=orthogonalEdgeStyle;rounded=0;orthogonalLoop=1;jettySize=auto;html=1;" edge="1" parent="1" source="961a6PUNnO08rihcnJV5-13">
          <mxGeometry relative="1" as="geometry">
            <mxPoint x="180" y="440" as="targetPoint" />
          </mxGeometry>
        </mxCell>
        <mxCell id="961a6PUNnO08rihcnJV5-13" value="&lt;span&gt;將鄰近最佳解設為歷史最佳解&lt;/span&gt;" style="whiteSpace=wrap;html=1;rounded=0;fillColor=#dae8fc;strokeColor=#6c8ebf;" vertex="1" parent="1">
          <mxGeometry x="295" y="510" width="170" height="60" as="geometry" />
        </mxCell>
        <mxCell id="961a6PUNnO08rihcnJV5-17" value="否" style="text;html=1;strokeColor=none;fillColor=none;align=center;verticalAlign=middle;whiteSpace=wrap;rounded=0;" vertex="1" parent="1">
          <mxGeometry x="300" y="410" width="40" height="20" as="geometry" />
        </mxCell>
        <mxCell id="961a6PUNnO08rihcnJV5-18" value="是" style="text;html=1;strokeColor=none;fillColor=none;align=center;verticalAlign=middle;whiteSpace=wrap;rounded=0;" vertex="1" parent="1">
          <mxGeometry x="394" y="480" width="40" height="20" as="geometry" />
        </mxCell>
        <mxCell id="961a6PUNnO08rihcnJV5-19" value="是" style="text;html=1;strokeColor=none;fillColor=none;align=center;verticalAlign=middle;whiteSpace=wrap;rounded=0;" vertex="1" parent="1">
          <mxGeometry x="420" y="190" width="40" height="20" as="geometry" />
        </mxCell>
        <mxCell id="961a6PUNnO08rihcnJV5-20" value="否" style="text;html=1;strokeColor=none;fillColor=none;align=center;verticalAlign=middle;whiteSpace=wrap;rounded=0;" vertex="1" parent="1">
          <mxGeometry x="380" y="260" width="40" height="20" as="geometry" />
        </mxCell>
        <mxCell id="961a6PUNnO08rihcnJV5-23" value="滿足停止條件?" style="rhombus;whiteSpace=wrap;html=1;rounded=0;fillColor=#dae8fc;strokeColor=#6c8ebf;" vertex="1" parent="1">
          <mxGeometry x="340" y="180" width="80" height="80" as="geometry" />
        </mxCell>
        <mxCell id="961a6PUNnO08rihcnJV5-24" value="找到鄰近最佳解" style="whiteSpace=wrap;html=1;rounded=0;fillColor=#dae8fc;strokeColor=#6c8ebf;" vertex="1" parent="1">
          <mxGeometry x="320" y="300" width="120" height="60" as="geometry" />
        </mxCell>
        <mxCell id="961a6PUNnO08rihcnJV5-25" value="結束" style="whiteSpace=wrap;html=1;rounded=0;fillColor=#dae8fc;strokeColor=#6c8ebf;" vertex="1" parent="1">
          <mxGeometry x="480" y="190" width="120" height="60" as="geometry" />
        </mxCell>
        <mxCell id="961a6PUNnO08rihcnJV5-26" value="是否優於歷史最佳解" style="rhombus;whiteSpace=wrap;html=1;rounded=0;fillColor=#dae8fc;strokeColor=#6c8ebf;" vertex="1" parent="1">
          <mxGeometry x="340" y="400" width="80" height="80" as="geometry" />
        </mxCell>
      </root>
    </mxGraphModel>
  </diagram>
</mxfile>
